# xmcd
#
# Track frame offsets: 
#        150
#        15334
#        36306
#        47619
#        60578
#        73538
#        84974
#        112485
#        133652
#        155388
#        169716
#        184389
#        200662
#        222940
#        237721
#
# Disc length: 3449 seconds
#
# Revision: 0
# Processed by: cddbd v1.5.2PL0 Copyright (c) Steve Scherf et al.
# Submitted via: ExactAudioCopy v1.3
#
DISCID=d90d770f
DTITLE=Louisiana Red and Lefty Dizz - Walked All Night Long
DYEAR=1975
DGENRE=Chicago Blues
TTITLE0=First Degree
TTITLE1=Bring My Machine Gun
TTITLE2=King Bee
TTITLE3=Stole From Me
TTITLE4=Too Poor To Die
TTITLE5=Walked All Night Long
TTITLE6=Cold White Sheet
TTITLE7=Pinetop
TTITLE8=Going Train Blues
TTITLE9=I'll Pay The Price
TTITLE10=Going Down Georgia
TTITLE11=Ever Heard A Churchbell Sound
TTITLE12=Mary
TTITLE13=Got A Gal With A Dog Won't Bark
TTITLE14=The Whole World
EXTD=
EXTT0=
EXTT1=
EXTT2=
EXTT3=
EXTT4=
EXTT5=
EXTT6=
EXTT7=
EXTT8=
EXTT9=
EXTT10=
EXTT11=
EXTT12=
EXTT13=
EXTT14=
PLAYORDER=
